<?xml version="1.0" encoding="iso-8859-1"?>
<!-- Uploaded to: SVG Repo, www.svgrepo.com, Generator: SVG Repo Mixer Tools -->
<!DOCTYPE svg PUBLIC "-//W3C//DTD SVG 1.1//EN" "http://www.w3.org/Graphics/SVG/1.1/DTD/svg11.dtd">
<svg fill="#000000" height="800px" width="800px" version="1.1" id="Capa_1" xmlns="http://www.w3.org/2000/svg" xmlns:xlink="http://www.w3.org/1999/xlink" 
	 viewBox="0 0 203.612 203.612" xml:space="preserve">
<path d="M59.316,32.272v139.067c0,16.279-12.65,29.523-28.2,29.523H28.2c-15.55,0-28.2-13.244-28.2-29.523V32.272
	C0,15.994,12.65,2.75,28.2,2.75h2.916C46.666,2.75,59.316,15.994,59.316,32.272z M203.612,41.202v119.467
	c0,12.79-10.405,23.195-23.195,23.195H74.414c-2.762,0-5-2.239-5-5V24.748c0-2.761,2.238-5,5-5h107.744
	C193.988,19.748,203.612,29.373,203.612,41.202z M113.394,153.125c0-6.58-5.354-11.934-11.934-11.934s-11.934,5.354-11.934,11.934
	s5.354,11.934,11.934,11.934S113.394,159.705,113.394,153.125z M113.394,121.954c0-6.58-5.354-11.934-11.934-11.934
	s-11.934,5.354-11.934,11.934s5.354,11.934,11.934,11.934S113.394,128.534,113.394,121.954z M113.394,90.783
	c0-6.58-5.354-11.934-11.934-11.934s-11.934,5.354-11.934,11.934s5.354,11.934,11.934,11.934S113.394,97.363,113.394,90.783z
	 M148.508,153.125c0-6.58-5.354-11.934-11.934-11.934s-11.934,5.354-11.934,11.934s5.354,11.934,11.934,11.934
	S148.508,159.705,148.508,153.125z M148.508,121.954c0-6.58-5.354-11.934-11.934-11.934s-11.934,5.354-11.934,11.934
	s5.354,11.934,11.934,11.934S148.508,128.534,148.508,121.954z M148.508,90.783c0-6.58-5.354-11.934-11.934-11.934
	s-11.934,5.354-11.934,11.934s5.354,11.934,11.934,11.934S148.508,97.363,148.508,90.783z M183.622,153.125
	c0-6.58-5.354-11.934-11.934-11.934s-11.934,5.354-11.934,11.934s5.354,11.934,11.934,11.934S183.622,159.705,183.622,153.125z
	 M183.622,121.954c0-6.58-5.354-11.934-11.934-11.934s-11.934,5.354-11.934,11.934s5.354,11.934,11.934,11.934
	S183.622,128.534,183.622,121.954z M183.622,90.783c0-6.58-5.354-11.934-11.934-11.934s-11.934,5.354-11.934,11.934
	s5.354,11.934,11.934,11.934S183.622,97.363,183.622,90.783z M187.016,47.521c0-5.812-4.728-10.54-10.539-10.54H91.011
	c-2.762,0-5,2.239-5,5v19.096c0,2.761,2.238,5,5,5h91.005c2.762,0,5-2.239,5-5V47.521z"/>
</svg>